<svg id="Line-Expand" enable-background="new 0 0 64 64" height="512" viewBox="0 0 64 64" width="512" xmlns="http://www.w3.org/2000/svg"><path d="m61.707 10.293-8-8c-.187-.188-.441-.293-.707-.293h-50c-.553 0-1 .448-1 1v58c0 .552.447 1 1 1h58c.553 0 1-.448 1-1v-50c0-.265-.105-.52-.293-.707zm-57.707 49.707v-56h48.586l6 6h-4.586v-3h-2v4c0 .552.447 1 1 1h7v48z"/><path d="m37.707 31.293c-.12-.12-.269-.208-.433-.254l-7-2c-.346-.1-.725-.003-.981.254-.257.257-.354.632-.255.982l2 7c.047.163.135.312.255.432l20 20c.195.195.451.293.707.293s.512-.098.707-.293l5-5c.391-.391.391-1.023 0-1.414zm14.293 24.293-19.109-19.11-1.435-5.02 5.021 1.434 15.109 15.11-2.293 2.293 1.414 1.414 2.293-2.293 2.586 2.586z"/><path d="m15.8 32.428c-.43-.121-.698-.367-.871-.8-.686-1.712 4.627-6.495 8.506-9.986 5.01-4.51 9.337-8.404 9.251-11.341-.023-.827-.391-1.546-1.061-2.083-4.515-3.614-20.058 5.128-23.128 6.917l1.006 1.729c7.145-4.161 18.34-9.104 20.872-7.083.215.171.305.339.312.579.059 2.011-4.736 6.328-8.59 9.796-5.488 4.94-10.229 9.207-9.025 12.216.403 1.008 1.16 1.694 2.189 1.982.371.104.773.152 1.199.152 4.395 0 11.299-5.075 12.14-5.706l-1.2-1.6c-3.185 2.386-9.149 5.911-11.6 5.228z"/><path d="m14 56h2v2h-2z"/><path d="m10 56h2v2h-2z"/><path d="m6 56h2v2h-2z"/></svg>