<svg id="Capa_1" enable-background="new 0 0 512 512" height="512" viewBox="0 0 512 512" width="512" xmlns="http://www.w3.org/2000/svg"><g><path d="m291.723 310.245c6.644 0 12.029-5.385 12.029-12.028s-5.385-12.029-12.029-12.029c-6.643 0-12.028 5.385-12.028 12.029s5.385 12.028 12.028 12.028z"/><path d="m209.563 326.847h50.939c4.142 0 7.5-3.357 7.5-7.5s-3.358-7.5-7.5-7.5h-50.939c-4.143 0-7.5 3.357-7.5 7.5s3.358 7.5 7.5 7.5z"/><path d="m178.342 310.245c6.643 0 12.028-5.385 12.028-12.028s-5.385-12.029-12.028-12.029-12.028 5.385-12.028 12.029 5.385 12.028 12.028 12.028z"/><path d="m258.492 137.044h30.36c13.045 0 23.658-10.613 23.658-23.658v-46.258c0-13.046-10.613-23.659-23.658-23.659h-30.36c-13.046 0-23.659 10.613-23.659 23.659v46.258c0 13.045 10.613 23.658 23.659 23.658zm-8.659-69.916c0-4.774 3.884-8.659 8.659-8.659h30.36c4.774 0 8.658 3.885 8.658 8.659v46.258c0 4.774-3.884 8.658-8.658 8.658h-30.36c-4.774 0-8.659-3.884-8.659-8.658z"/><path d="m343.228 211.879h-216.389c-20.072 0-36.402 16.33-36.402 36.402v75.279c0 20.071 16.33 36.401 36.402 36.401h216.389c20.072 0 36.402-16.33 36.402-36.401 0-15.459 0-60.379 0-75.279 0-20.072-16.33-36.402-36.402-36.402zm21.402 111.682c0 11.801-9.601 21.401-21.402 21.401h-216.389c-11.801 0-21.402-9.601-21.402-21.401v-51.396h259.193zm0-66.396h-259.193v-8.884c0-11.802 9.601-21.402 21.402-21.402h216.389c11.801 0 21.402 9.601 21.402 21.402z"/><path d="m425.726 15.648h-41.935-37.87c-7.965-9.554-19.95-15.648-33.333-15.648h-155.11c-13.384 0-25.368 6.094-33.334 15.648h-37.87c-32.257 0-58.5 26.243-58.5 58.5v273.681c0 32.257 26.243 58.499 58.5 58.499h79.725v44.009h-8.114c-17 0-30.831 13.831-30.831 30.831 0 17.001 13.831 30.832 30.831 30.832h38.946c17 0 30.832-13.831 30.832-30.832v-74.84h46.924v44.009h-8.114c-17.001 0-30.832 13.831-30.832 30.831 0 17.001 13.831 30.832 30.832 30.832h38.945c17.001 0 30.832-13.831 30.832-30.832v-74.84c9.218 0 81.923.001 89.477.001 32.257 0 58.5-26.243 58.5-58.5v-273.681c-.001-32.256-26.244-58.5-58.501-58.5zm-296.64 27.744c0-15.584 12.686-28.392 28.393-28.392h155.109c15.439 0 28.392 12.521 28.392 28.392v98.504c0 13.022-10.595 23.617-23.617 23.617h-164.659c-13.023 0-23.618-10.595-23.618-23.617zm83.576 437.776c0 8.729-7.102 15.832-15.832 15.832h-38.946c-8.729 0-15.831-7.103-15.831-15.832s7.102-15.831 15.831-15.831h15.614c4.143 0 7.5-3.357 7.5-7.5v-27.831h31.664zm108.588 0c0 8.729-7.102 15.832-15.832 15.832h-38.945c-8.729 0-15.832-7.103-15.832-15.832s7.103-15.831 15.832-15.831h15.614c4.142 0 7.5-3.357 7.5-7.5v-27.831h31.663zm62.542-89.84h-297.518c-23.986 0-43.5-19.514-43.5-43.499v-273.681c0-23.986 19.514-43.5 43.5-43.5h29.715c-1.235 4.021-1.903 8.462-1.903 12.743v98.504c0 21.294 17.324 38.617 38.618 38.617h164.658c21.294 0 38.617-17.323 38.617-38.617v-98.503c0-4.457-.706-8.843-1.902-12.743h29.715c23.986 0 43.5 19.514 43.5 43.5v273.681c0 23.984-19.514 43.498-43.5 43.498zm85.434-43.499c0 23.986-19.515 43.5-43.5 43.5h-2.859c12.349-11.099 19.424-26.949 19.424-43.5v-273.681c0-16.546-7.058-32.386-19.424-43.5h2.859c23.985 0 43.5 19.514 43.5 43.5z"/></g></svg>